<svg id="Layer_1" data-name="Layer 1" xmlns="http://www.w3.org/2000/svg" viewBox="0 0 463.01 254.99"><defs><style>.cls-1{fill:#440b2b;}</style></defs><title>crossaint</title><path class="cls-1" d="M455.19,286.86c-8.19-15.05-16.93-30.08-26-44.75,1.87-1.64,3.73-3.29,5.62-4.91a20.21,20.21,0,0,0,7.08-13.92,21.92,21.92,0,0,0-5.54-15.95c-14.37-16.54-46.11-46.12-98.62-60.61.68-8.5-4.31-16.95-12.93-21.28-27.79-14-60-21.43-93.21-21.43h-.23c-33.16,0-65.37,7.41-93.15,21.42-8.63,4.34-13.63,12.8-12.94,21.29C72.76,161.21,41,190.79,26.66,207.33a21.84,21.84,0,0,0-5.54,15.95,20.16,20.16,0,0,0,7.07,13.92c1.88,1.62,3.75,3.27,5.62,4.91-9.07,14.67-17.8,29.7-26,44.75A63.11,63.11,0,0,0,2,333a34.46,34.46,0,0,0,22.43,24.08A35.18,35.18,0,0,0,35.79,359a36.46,36.46,0,0,0,22.1-7.55c16.61-12.67,34-24.8,51.65-36.13a22.06,22.06,0,0,0,11.07,3,22.31,22.31,0,0,0,9-1.9c11.37-5,23-9.72,34.61-14.15a22.16,22.16,0,0,0,15.52,5h0a754.5,754.5,0,0,1,103.52,0c.51,0,1,0,1.52,0a22.18,22.18,0,0,0,14-5c11.61,4.43,23.23,9.16,34.59,14.14a22.31,22.31,0,0,0,9,1.9,22.06,22.06,0,0,0,11.07-3c17.68,11.33,35,23.46,51.65,36.14a36.45,36.45,0,0,0,22.1,7.54,35.44,35.44,0,0,0,11.35-1.87A34.53,34.53,0,0,0,461,333,63.08,63.08,0,0,0,455.19,286.86ZM48.79,339.53a20.74,20.74,0,0,1-19.52,3.39,19.66,19.66,0,0,1-12.76-13.71A48.12,48.12,0,0,1,21,294c7.64-14,15.77-28.07,24.2-41.79,18.49,16.75,36.29,34.3,53.18,52.42C81.4,315.64,64.76,327.35,48.79,339.53Zm74.79-36.86a7.07,7.07,0,0,1-8.07-1.58l-.13-.13h0a897.75,897.75,0,0,0-66.6-65.68l-.18-.16q-5.28-4.7-10.62-9.29a5.21,5.21,0,0,1-1.89-3.63,7,7,0,0,1,1.9-5c13.18-15.19,42.27-42.28,90.54-55.79,10,42.31,19.43,85.22,27.95,127.77C145.43,293.4,134.39,297.93,123.58,302.67ZM291.7,286.79a7,7,0,0,1-7.41,5.47c-17.52-1.21-35.16-1.82-52.8-1.82s-35.26.61-52.77,1.82a7,7,0,0,1-7.42-5.46c-9.37-46.85-19.8-94.17-31-140.65-.64-2.66,1.22-5.6,4.64-7.32,25.71-13,55.59-19.82,86.41-19.82h.22c30.87,0,60.77,6.85,86.48,19.82,3.41,1.72,5.27,4.66,4.63,7.34C311.5,192.63,301.08,240,291.7,286.79Zm55.8,14.3a7.08,7.08,0,0,1-8.08,1.58c-10.81-4.75-21.85-9.27-32.89-13.52,8.52-42.55,17.92-85.46,28-127.77,48.27,13.51,77.36,40.6,90.54,55.79a7,7,0,0,1,1.9,5,5.19,5.19,0,0,1-1.89,3.63q-5.36,4.62-10.64,9.31l-.15.14A897.65,897.65,0,0,0,347.5,301.09Zm99,28a19.69,19.69,0,0,1-12.78,13.79,20.74,20.74,0,0,1-19.52-3.39c-16-12.19-32.61-23.89-49.58-34.87,16.89-18.12,34.69-35.67,53.18-52.43C426.24,266,434.37,280,442,294A48.07,48.07,0,0,1,446.51,329.13Z" transform="translate(0 -104.01)"/></svg>