<svg id="Capa_1" data-name="Capa 1" xmlns="http://www.w3.org/2000/svg" viewBox="0 0 478.2 478.2"><defs><style>.cls-1{fill:#440b2b;}</style></defs><title>meme</title><path class="cls-1" d="M306,172.1a19.1,19.1,0,1,1,19.1,19.1A19.16,19.16,0,0,1,306,172.1ZM153,191.2a19.1,19.1,0,1,0-19.1-19.1A19.16,19.16,0,0,0,153,191.2Zm325.2,47.9c0,132-107.1,239.1-239.1,239.1S0,371.1,0,239.1,107.1,0,239.1,0,478.2,107.1,478.2,239.1Zm-19.2,0c0-122.4-97.5-219.9-219.9-219.9S19.2,116.7,19.2,239.1,116.7,459,239.1,459,459,361.5,459,239.1ZM95.6,286.8H382.5S363.4,401.6,239.1,401.6,95.6,286.9,95.6,286.8ZM355.7,306H120.5s24.9,76.5,118.6,76.5S355.7,306,355.7,306Z"/></svg>