<svg id="Capa_1" data-name="Capa 1" xmlns="http://www.w3.org/2000/svg" viewBox="0 0 86.47 96.89"><defs><style>.cls-1{fill:#440b2b;}</style></defs><title>vine</title><path class="cls-1" d="M91.68,47.9a32,32,0,0,1-5.34.94c-8.83.83-16.28-1.74-21.19-9.58-2.94-4.68-3.75-9.95-3.42-15.41a13.21,13.21,0,0,1,1.69-6.22,5.61,5.61,0,0,1,4.74-3c3.1-.11,5.25,1.8,6.11,5.54,1.1,4.79.35,9.48-1,14.11-.14.47-.39,1.46-.39,1.46s.64.72,1.09,1.18c3.2,3.22,7.14,4,11.44,3.61l1.61-.14s.43-1.08.6-1.54a43.22,43.22,0,0,0,2.57-19.51C89.24,9.73,84.16,1.39,71.93.15,61-1,51.92,4.08,48.11,14.53a34.64,34.64,0,0,0-1.19,18.33C48.78,43.21,53.65,51.62,63,57c.93.54,1,1,.49,1.83A95.66,95.66,0,0,1,49.68,78.8c-2.36,2.6-2.35,2.58-4.56-.23C34,64.44,27.81,48.14,24.33,30.68c-.95-4.78-1.73-9.57-2.33-14.4l-.14-1.68H5.21l.13.95c2.11,15,5.29,29.8,10.92,44C20.4,69.9,25.61,79.66,33.17,88a41.57,41.57,0,0,0,8.25,7.18c3.63,2.34,7.18,2.18,10.67-.26A27.13,27.13,0,0,0,55,92.69,104.76,104.76,0,0,0,78.2,62.32a2,2,0,0,1,2-1.32,44.41,44.41,0,0,0,7.27-.7q2.13-.34,4.2-.87V47.9Z" transform="translate(-5.21 0)"/></svg>