<svg id="Capa_1" data-name="Capa 1" xmlns="http://www.w3.org/2000/svg" viewBox="0 0 86.47 96.86"><defs><style>.cls-1{fill:#dd5274;}</style></defs><title>vine_pink</title><path class="cls-1" d="M86.47,47.9a32.28,32.28,0,0,1-5.34.94c-8.83.83-16.28-1.74-21.19-9.58-2.94-4.68-3.75-9.95-3.42-15.41a13.17,13.17,0,0,1,1.69-6.22,5.62,5.62,0,0,1,4.74-3c3.1-.11,5.25,1.8,6.11,5.54,1.1,4.79.35,9.48-1,14.11-.14.47-.39,1.46-.39,1.46s.64.72,1.09,1.18c3.2,3.22,7.14,4,11.44,3.61l1.61-.14s.43-1.08.6-1.54A43.24,43.24,0,0,0,85,19.34C84,9.73,79,1.39,66.72.15,55.79-1,46.71,4.08,42.9,14.53a34.63,34.63,0,0,0-1.19,18.33C43.57,43.21,48.44,51.62,57.79,57c.93.54,1,1,.49,1.83a95.72,95.72,0,0,1-13.81,20c-2.36,2.6-2.35,2.58-4.56-.23C28.79,64.44,22.6,48.14,19.12,30.68c-.95-4.78-1.73-9.57-2.33-14.4l-.14-1.68H0l.13,1c2.11,15,5.29,29.8,10.92,44C15.19,69.9,20.4,79.66,28,88a41.53,41.53,0,0,0,8.25,7.18c3.63,2.34,7.18,2.18,10.67-.26a27.35,27.35,0,0,0,2.91-2.23A104.9,104.9,0,0,0,73,62.32,2,2,0,0,1,75,61a44.31,44.31,0,0,0,7.27-.7q2.13-.34,4.2-.87V47.9Z" transform="translate(0 0.01)"/></svg>