<svg id="Ebene_1" data-name="Ebene 1" xmlns="http://www.w3.org/2000/svg" viewBox="0 0 411.9 411.9"><defs><style>.cls-1{fill:#440b2b;}</style></defs><title>instagram</title><path id="instagram-6-icon" class="cls-1" d="M414.5,224.3H378.6A126.72,126.72,0,1,1,129.2,256a122.46,122.46,0,0,1,4.2-31.7H97.5V398.6a15.86,15.86,0,0,0,15.9,15.8H398.6a15.86,15.86,0,0,0,15.9-15.8V224.3Zm0-110.9a15.79,15.79,0,0,0-15.9-15.8H351.1a15.77,15.77,0,0,0-15.8,15.8v47.5a15.83,15.83,0,0,0,15.8,15.8h47.5a15.86,15.86,0,0,0,15.9-15.8ZM256,176.8A79.2,79.2,0,1,0,335.2,256,79.19,79.19,0,0,0,256,176.8M414.5,462H97.5A47.56,47.56,0,0,1,50,414.4V97.6A47.48,47.48,0,0,1,97.5,50.1H414.4a47.54,47.54,0,0,1,47.5,47.5V414.5A47.39,47.39,0,0,1,414.5,462" transform="translate(-50 -50.1)"/></svg>