<svg id="Ebene_1" data-name="Ebene 1" xmlns="http://www.w3.org/2000/svg" viewBox="0 0 411.8 334.7"><defs><style>.cls-1{fill:#440b2b;}</style></defs><title>twitter</title><path id="twitter-icon" class="cls-1" d="M462,128.3a168.36,168.36,0,0,1-48.5,13.3,85,85,0,0,0,37.2-46.8A168.54,168.54,0,0,1,397,115.3a84.52,84.52,0,0,0-61.7-26.7c-54.6,0-94.7,50.9-82.3,103.8A240.07,240.07,0,0,1,78.8,104.1,84.55,84.55,0,0,0,105,216.9a82.81,82.81,0,0,1-38.3-10.6c-.9,39.2,27.1,75.8,67.8,83.9a84.35,84.35,0,0,1-38.2,1.4,84.69,84.69,0,0,0,79,58.7,170.05,170.05,0,0,1-125.1,35,239,239,0,0,0,129.6,38c156.9,0,245.6-132.6,240.3-251.4A173.8,173.8,0,0,0,462,128.3Z" transform="translate(-50.2 -88.6)"/></svg>